<svg width="200" height="200" viewBox="0 0 500 500" fill="none" xmlns="http://www.w3.org/2000/svg">
<rect width="500" height="500" fill="black"/>
<mask id="mask0_502_2" style="mask-type:luminance" maskUnits="userSpaceOnUse" x="82" y="82" width="281" height="253">
<path d="M82 82H362.051V334.051H82V82Z" fill="white"/>
</mask>
<g mask="url(#mask0_502_2)">
<path d="M194.002 194.002C194.002 163.114 219.125 137.998 250 137.998H362.002V110.002C362.002 94.6049 349.393 82 334 82H110.002C94.6049 82 82 94.6049 82 110.002V305.998C82 321.395 94.6049 334 110.002 334H194.002V194.002Z" fill="#7370FF"/>
</g>
<path d="M334 221.998H389.998V194.002C389.998 178.605 377.395 166 362.003 166H250C234.607 166 221.998 178.605 221.998 194.002V362.002C221.998 377.395 234.607 389.998 250 389.998H278.003V278.002C278.003 247.114 303.114 221.998 334 221.998Z" fill="#C0E0DE"/>
<mask id="mask1_502_2" style="mask-type:luminance" maskUnits="userSpaceOnUse" x="305" y="249" width="114" height="169">
<path d="M305.48 249.48H418.001V418H305.48V249.48Z" fill="white"/>
</mask>
<g mask="url(#mask1_502_2)">
<path d="M418.001 389.998C418.001 405.395 405.396 418 389.999 418H334.001C318.608 418 305.999 405.395 305.999 389.998V278.002C305.999 262.605 318.608 250 334.001 250H389.999C405.396 250 418.001 262.605 418.001 278.002V389.998Z" fill="#9EEFE5"/>
</g>
</svg>
